<?xml version="1.0" encoding="UTF-8" standalone="no"?>
<svg width="114px" height="40px" viewBox="0 0 114 40" version="1.1" xmlns="http://www.w3.org/2000/svg" xmlns:xlink="http://www.w3.org/1999/xlink">
    <!-- Generator: Sketch 3.8.3 (29802) - http://www.bohemiancoding.com/sketch -->
    <title>logo-nav-dreeslogo-114x40-homepage</title>
    <desc>Created with Sketch.</desc>
    <defs></defs>
    <g id="Symbols" stroke="none" stroke-width="1" fill="none" fill-rule="evenodd">
        <g id="download" transform="translate(-1.000000, -4354.000000)">
            <g id="logo-nav-dreeslogo-114x40-homepage" transform="translate(1.000000, 4354.000000)">
                <path d="M67.533,32.633 L64.85,32.633 L64.85,35.051 L62.444,35.051 L62.444,28.985 L64.849,28.985 L64.849,31.1 L67.532,31.1 L67.532,28.984 L69.929,28.984 L69.929,35.051 L67.532,35.051 L67.533,32.633 Z M74.14,32.017 C74.14,30.784 74.76,30.302 75.737,30.302 C76.722,30.302 77.34,30.782 77.34,32.017 C77.34,33.25 76.723,33.732 75.737,33.732 C74.76,33.732 74.139,33.25 74.139,32.017 L74.14,32.017 Z M71.589,32.017 C71.589,35.163 74.282,35.264 75.736,35.264 C77.196,35.264 79.889,35.164 79.889,32.017 C79.889,28.877 77.194,28.767 75.736,28.767 C74.282,28.767 71.589,28.877 71.589,32.017 L71.589,32.017 Z" id="Shape" fill="#00462E"></path>
                <path d="M81.632,28.984 L85,28.984 L86,32.507 L86.02,32.507 L87.01,28.984 L90.385,28.984 L90.385,35.051 L88.21,35.051 L88.21,30.718 L88.196,30.718 L86.913,35.052 L85.095,35.052 L83.825,30.719 L83.807,30.719 L83.807,35.053 L81.632,35.053 L81.632,28.984 Z M92.664,28.984 L99.114,28.984 L99.114,30.464 L95.058,30.464 L95.058,31.281 L98.826,31.281 L98.826,32.755 L95.058,32.755 L95.058,33.572 L99.113,33.572 L99.113,35.052 L92.663,35.052 L92.664,28.984 Z M102.245,32.474 C101.072,32.297 100.585,31.614 100.585,30.768 C100.585,29.195 102.127,28.766 104.098,28.766 C106.804,28.766 107.918,29.479 108.001,30.76 L105.211,30.76 C105.211,30.512 105.071,30.36 104.843,30.275 C104.637,30.183 104.363,30.145 104.098,30.145 C103.384,30.145 103.138,30.323 103.138,30.578 C103.138,30.751 103.208,30.858 103.448,30.888 L106.322,31.316 C107.528,31.493 108.274,32.056 108.274,33.088 C108.274,34.571 107.064,35.263 104.374,35.263 C102.524,35.263 100.512,35.003 100.504,33.223 L103.394,33.223 C103.404,33.426 103.477,33.563 103.648,33.658 C103.828,33.742 104.088,33.786 104.464,33.786 C105.21,33.786 105.417,33.579 105.417,33.296 C105.417,33.113 105.307,32.939 104.985,32.881 L102.247,32.475 L102.245,32.474 Z" id="Shape" fill="#00462E"></path>
                <path d="M0.485,25.176 L0.485,34.756 C0.762,34.244 1.15,33.739 1.693,33.259 C3.913,31.304 8.595,32.289 10.023,28.839 L10.023,25.175 L0.486,25.175 L0.485,25.176 Z M10.18,28.855 C9.18,33.491 5.293,32.577 3.956,34.571 C2.889,36.158 4.072,38.029 4.97,39.076 L13.437,39.076 L13.437,28.856 L10.18,28.856 L10.18,28.855 Z" id="Shape" fill="#AABC26"></path>
                <path d="M18.678,3.232 L22.104,3.232 C27.031,3.232 30.136,5.842 30.136,12.465 C30.136,20.705 26.468,23.138 21.648,23.138 L18.678,23.138 L18.678,3.232 L18.678,3.232 Z M13.438,1.189 L13.438,25.174 L23.224,25.174 C30.384,25.174 35.932,20.454 35.932,12.496 C35.932,6.722 32.862,1.478 25.392,1.188 L13.436,1.188 L13.438,1.189 Z M41.778,5.312 L41.778,1.308 L37.35,1.308 L37.35,25.194 L41.778,25.194 L41.778,12.21 C41.778,9.645 41.858,8.108 43.498,6.232 C44.164,5.472 45.11,5.105 46.388,5.105 C47.735,5.105 48.465,5.803 48.471,5.803 L48.856,6.171 L48.942,5.651 L49.652,1.363 L49.458,1.288 C48.956,1.055 48.502,1.016 47.842,1.016 C45.744,1.016 43.654,2.508 41.78,5.313 L41.778,5.312 Z M48.856,13.177 C48.856,20.624 53.476,25.429 60.636,25.429 C63.46,25.429 66.569,24.369 69.17,22.516 L69.317,22.416 L69.389,18.851 L68.759,19.449 C66.561,21.569 64.165,22.683 61.847,22.683 C59.45,22.683 57.424,21.866 55.999,20.326 C54.556,18.756 53.787,16.561 53.787,14.042 C53.787,13.812 53.805,13.578 53.82,13.344 L60.3,13.344 C63.543,13.344 66.842,13.392 70.117,13.49 L70.46,13.507 L70.484,13.153 C70.711,9.326 69.739,6.139 67.684,3.953 C65.85,2.01 63.235,0.926 60.302,0.926 C53.342,0.926 48.858,5.739 48.858,13.178 L48.856,13.177 Z M60.3,3.152 C63.913,3.152 65.77,5.672 65.977,10.847 L53.87,10.847 C54.236,7.051 56.096,3.152 60.3,3.152 L60.3,3.152 Z M71.605,13.177 C71.605,20.624 76.23,25.429 83.383,25.429 C86.209,25.429 89.316,24.369 91.916,22.516 L92.068,22.416 L92.136,18.851 L91.511,19.449 C89.311,21.569 86.914,22.683 84.598,22.683 C82.2,22.683 80.174,21.866 78.75,20.326 C77.306,18.756 76.536,16.561 76.536,14.042 C76.536,13.812 76.553,13.578 76.569,13.344 L83.041,13.344 C86.285,13.344 89.597,13.392 92.856,13.49 L93.206,13.507 L93.232,13.153 C93.456,9.326 92.494,6.139 90.43,3.953 C88.59,2.01 85.97,0.926 83.044,0.926 C76.098,0.926 71.606,5.739 71.606,13.178 L71.605,13.177 Z M83.042,3.152 C86.666,3.152 88.52,5.672 88.725,10.847 L76.615,10.847 C76.985,7.051 78.842,3.152 83.042,3.152 L83.042,3.152 Z M96.25,3.164 C94.896,4.522 94.178,6.368 94.178,8.524 C94.178,13.281 97.58,14.214 100.583,15.028 C103.243,15.761 105.549,16.388 105.549,19.315 C105.549,21.832 103.172,23.395 100.969,23.395 C98.589,23.395 96.684,21.639 95.701,19.998 L95.189,19.11 L93.849,23.77 L94.003,23.862 C95.619,24.86 97.971,25.472 100.143,25.472 C104.523,25.472 109.239,23.022 109.239,17.66 C109.239,13.338 105.877,12.254 102.912,11.295 C100.216,10.415 97.874,9.653 97.874,6.85 C97.874,5.773 98.252,4.826 98.988,4.12 C99.765,3.375 100.864,2.966 102.013,3.01 C104.738,3.112 106.448,6.595 106.473,6.636 L106.751,7.22 L106.906,6.587 C107.196,5.427 107.998,2.671 107.998,2.643 L108.058,2.456 L107.881,2.366 C107.763,2.312 104.883,0.962 102.235,0.944 C99.845,0.924 97.71,1.718 96.249,3.164 L96.25,3.164 Z" id="Shape" fill="#00462E"></path>
                <path d="M109.677,34.26 C109.677,34.59 109.919,34.72 110.219,34.72 C110.547,34.72 110.669,34.557 110.669,34.395 C110.669,34.23 110.579,34.165 110.493,34.131 C110.343,34.075 110.149,34.037 109.855,33.956 C109.49,33.856 109.383,33.636 109.383,33.414 C109.383,32.986 109.778,32.784 110.163,32.784 C110.611,32.784 110.985,33.022 110.985,33.467 L110.611,33.467 C110.593,33.192 110.407,33.091 110.149,33.091 C109.975,33.091 109.757,33.153 109.757,33.369 C109.757,33.519 109.859,33.603 110.012,33.645 C110.045,33.655 110.518,33.777 110.628,33.81 C110.908,33.893 111.043,34.132 111.043,34.354 C111.043,34.834 110.619,35.024 110.193,35.024 C109.705,35.024 109.31,34.79 109.301,34.261 L109.675,34.261 L109.677,34.26 Z M111.297,32.836 L111.824,32.836 L112.414,34.509 L112.42,34.509 L112.995,32.835 L113.515,32.835 L113.515,34.972 L113.158,34.972 L113.158,33.322 L113.153,33.322 L112.56,34.972 L112.252,34.972 L111.659,33.322 L111.652,33.322 L111.652,34.972 L111.296,34.972 L111.297,32.836 Z" id="Shape" fill="#00462E"></path>
            </g>
        </g>
    </g>
</svg>
